<svg xmlns="http://www.w3.org/2000/svg" xmlns:xlink="http://www.w3.org/1999/xlink" viewBox="0 0 50 50"><defs><style>.cls-1{isolation:isolate;}.cls-2{fill:#ffee1a;}.cls-3{fill:#f5b100;}.cls-4{fill:#ffec03;stroke:#c1a20a;stroke-miterlimit:10;stroke-width:0.2px;}.cls-5{fill:#ff0;opacity:0.12;}.cls-5,.cls-6{mix-blend-mode:screen;}.cls-6{opacity:0.15;fill:url(#linear-gradient);}</style><linearGradient id="linear-gradient" x1="-602.93" y1="-388.61" x2="-584.71" y2="-368.26" gradientTransform="translate(-558.52 -364.29) rotate(180)" gradientUnits="userSpaceOnUse"><stop offset="0" stop-color="#ff0"/><stop offset="0.11" stop-color="#f6f100"/><stop offset="0.32" stop-color="#ddcd00"/><stop offset="0.61" stop-color="#b69200"/><stop offset="0.96" stop-color="#804100"/><stop offset="1" stop-color="#7a3800"/></linearGradient></defs><g class="cls-1"><g id="Слой_1" data-name="Слой 1"><circle class="cls-2" cx="25.19" cy="25" r="24.26" transform="translate(-0.7 0.72) rotate(-1.63)"/><circle class="cls-3" cx="25.19" cy="25" r="23.11" transform="translate(-4.16 44.95) rotate(-78.98)"/><circle class="cls-3" cx="25.19" cy="25" r="19.23" transform="translate(-3.58 45.78) rotate(-80.62)"/><circle class="cls-3" cx="25.19" cy="25" r="17.11" transform="translate(-0.15 0.15) rotate(-0.34)"/><path class="cls-4" d="M23.91,42.76V39.34q-5-.2-7.75-2.76a9.33,9.33,0,0,1-2.78-7.09h7.17a6.13,6.13,0,0,0,.88,3.3,2.9,2.9,0,0,0,2.34,1.06l0-6.64Q18.48,26,16.13,23.9a7.08,7.08,0,0,1-2.36-5.58,7.73,7.73,0,0,1,2.81-6.22,11.85,11.85,0,0,1,7.6-2.47V7H27.3V9.59A10.7,10.7,0,0,1,34.42,12a8.69,8.69,0,0,1,2.71,6.42H30.3a4.41,4.41,0,0,0-.87-2.69,2.82,2.82,0,0,0-2.21-1v6.1c3.76.92,6.42,2.11,8,3.55a7.57,7.57,0,0,1,2.35,5.84,8.09,8.09,0,0,1-2.67,6.53q-2.66,2.27-8,2.58v3.38Zm.46-22.59V14.7h-.15a4.13,4.13,0,0,0-2.55.66,2.43,2.43,0,0,0-.84,2A2,2,0,0,0,21.62,19,7.52,7.52,0,0,0,24.37,20.17ZM26.7,33.85a4.93,4.93,0,0,0,2.83-.68,2.57,2.57,0,0,0,.15-3.89,8.33,8.33,0,0,0-3-1.32Z"/><path class="cls-5" d="M40.18,5.93A24.27,24.27,0,0,1,16,28.16,24.18,24.18,0,0,1,1,23a24.25,24.25,0,0,1,39.16-17Z"/><path class="cls-6" d="M16.71,6.92A19.1,19.1,0,0,1,28.64,2.7c11.11,0,20.13,9.73,20.13,21.72a23.35,23.35,0,0,1-1.58,8.46c.05-.66.07-1.33.07-2C47.26,17,36.81,5.7,23.92,5.7A21.92,21.92,0,0,0,16.71,6.92Z"/></g></g></svg>